<svg width="29" height="20" viewBox="0 0 29 20" fill="none" xmlns="http://www.w3.org/2000/svg">
<path d="M27.6909 4.68789C27.2597 3.95599 26.638 3.29275 25.8605 2.73529C25.0825 2.17618 24.1652 1.73185 23.1584 1.42649C22.1145 1.10858 20.9949 0.945863 19.8645 0.94777C18.2786 0.94777 16.7313 1.26613 15.3867 1.86747C15.065 2.01132 14.7594 2.16932 14.4699 2.34147C14.1804 2.16932 13.8748 2.01132 13.5532 1.86747C12.2085 1.26613 10.6613 0.94777 9.07541 0.94777C7.93345 0.94777 6.82689 1.10813 5.78144 1.42649C4.77137 1.73305 3.86102 2.17404 3.07935 2.73529C2.30088 3.29212 1.67902 3.95552 1.24901 4.68789C0.801877 5.44959 0.573486 6.25846 0.573486 7.09091C0.573486 7.87619 0.792227 8.69449 1.22649 9.52694C1.58999 10.2226 2.1111 10.9442 2.77697 11.6729C3.83207 12.8261 5.28284 14.0288 7.08423 15.248C10.0694 17.2689 13.0256 18.665 13.1511 18.7216L13.9134 19.0801C14.2512 19.2381 14.6855 19.2381 15.0232 19.0801L15.7856 18.7216C15.911 18.6626 18.864 17.2689 21.8524 15.248C23.6538 14.0288 25.1046 12.8261 26.1597 11.6729C26.8255 10.9442 27.3499 10.2226 27.7102 9.52694C28.1444 8.69449 28.3632 7.87619 28.3632 7.09091C28.3664 6.25846 28.138 5.44959 27.6909 4.68789Z" fill="#2563EB"/>
</svg>
