<svg width="55" height="55" viewBox="0 0 55 55" fill="none" xmlns="http://www.w3.org/2000/svg">
<g clip-path="url(#clip0_3_557)">
<path d="M54 27.5C54 42.1355 42.1355 54 27.5 54C12.8645 54 1 42.1355 1 27.5C1 12.8645 12.8645 1 27.5 1C42.1355 1 54 12.8645 54 27.5Z" stroke="#2563EB" stroke-width="2"/>
<path d="M13.0209 7.87506H41.9792C44.1884 7.87506 45.9792 9.66592 45.9792 11.8751V43.1251C45.9792 45.3342 44.1884 47.1251 41.9792 47.1251H13.0209C10.8117 47.1251 9.02087 45.3342 9.02087 43.1251V11.8751C9.02087 9.66592 10.8117 7.87506 13.0209 7.87506Z" stroke="#2563EB" stroke-width="2"/>
<mask id="path-3-inside-1_3_557" fill="white">
<path fill-rule="evenodd" clip-rule="evenodd" d="M46.9792 8.02084L30.2501 46.3993C29.2033 48.801 25.7968 48.801 24.75 46.3993L8.02087 8.02084"/>
</mask>
<path d="M30.2501 46.3993L32.0835 47.1985L30.2501 46.3993ZM24.75 46.3993L26.5833 45.6001L24.75 46.3993ZM45.1458 7.22167L28.4167 45.6001L32.0835 47.1985L48.8126 8.82001L45.1458 7.22167ZM26.5833 45.6001L9.85427 7.22167L6.18748 8.82001L22.9166 47.1985L26.5833 45.6001ZM28.4167 45.6001C28.0678 46.4007 26.9323 46.4007 26.5833 45.6001L22.9166 47.1985C24.6614 51.2013 30.3387 51.2012 32.0835 47.1985L28.4167 45.6001Z" fill="#2563EB" mask="url(#path-3-inside-1_3_557)"/>
</g>
<defs>
<clipPath id="clip0_3_557">
<rect width="55" height="55" fill="white"/>
</clipPath>
</defs>
</svg>
